<svg width="48" height="48" viewBox="0 0 24 24" fill="none" xmlns="http://www.w3.org/2000/svg"><rect width="24" height="24" fill="none" rx="0" ry="0"></rect><path fill-rule="evenodd" clip-rule="evenodd" d="M4.85006 9.85003C4.66006 9.85003 4.48006 9.76003 4.36006 9.60003L4.25 9.44594V18.2501C4.25 18.4801 4.38 18.7001 4.6 18.7901L12.92 22.6501C12.92 22.6601 12.93 22.6601 12.93 22.6601C12.95 22.6701 12.97 22.6801 13 22.6901C13.04 22.7101 13.08 22.7301 13.12 22.7301C13.16 22.7501 13.21 22.7501 13.25 22.7501C13.29 22.7501 13.34 22.7501 13.38 22.7301C13.42 22.7301 13.46 22.7101 13.5 22.6901L13.58 22.6501L21.9 18.7901C22.12 18.7001 22.25 18.4801 22.25 18.2501V9.29968C22.2473 9.33663 22.2407 9.37351 22.23 9.40993C22.18 9.57993 22.06 9.72993 21.9 9.79993L21.05 10.1946V14.3701L19.57 15.0601L13.85 17.7101V13.5374L13.5 13.6999C13.42 13.7299 13.34 13.7499 13.25 13.7499C13.06 13.7499 12.88 13.6599 12.76 13.4999L11.4262 11.6327L6.27731 9.25345L5.10006 9.80003C5.02006 9.83003 4.94006 9.85003 4.85006 9.85003ZM13.2565 6.01309L15.2155 6.92059L16.6457 6.25657L13.6299 4.85574L13.7401 5.01003C13.8401 5.16003 13.8801 5.34003 13.8301 5.51003C13.7801 5.68003 13.6601 5.83003 13.5001 5.90003L13.2565 6.01309ZM5.04529 8.49333L5.05006 8.50003L12.3401 5.11003L12.3382 5.10735L5.04529 8.49333ZM16.8513 7.47586L16.9264 7.44091C16.9022 7.45427 16.8771 7.46594 16.8513 7.47586ZM13.4457 12.3939L19.995 9.35637L13.45 12.3999L13.4457 12.3939ZM22.112 8.87072C22.1467 8.91046 22.1768 8.95357 22.2 9.00007V9.01007L22.23 9.10007C22.23 9.10161 22.23 9.10317 22.2301 9.10476C22.2113 9.03665 22.1806 8.97082 22.14 8.90993L22.112 8.87072ZM5.45 17.8701L12.65 21.2101V19.0301L10.27 17.9301L5.45 15.6901V17.8701ZM5.45 14.3701L6.93 15.0601L12.65 17.7101V13.5301L5.45 10.1901V14.3701ZM13.85 21.2101L21.05 17.8701V15.6901L16.23 17.9301L13.85 19.0301V21.2101Z
" fill="#22a6b3"></path><path fill-rule="evenodd" clip-rule="evenodd" d="M4.36006 9.60001C4.48006 9.76001 4.66006 9.85001 4.85006 9.85001C4.94006 9.85001 5.02006 9.83001 5.10006 9.80001L13.5001 5.90001C13.6601 5.83001 13.7801 5.68002 13.8301 5.51002C13.8801 5.34001 13.8401 5.16001 13.7401 5.01001L11.2401 1.51001C11.0701 1.27001 10.7601 1.19001 10.5001 1.31001L2.10006 5.21001C1.94006 5.28001 1.82006 5.43001 1.77006 5.60001C1.72006 5.77001 1.76006 5.95001 1.86006 6.10001L4.36006 9.60001ZM5.05006 8.50001L3.26006 5.99001L10.5501 2.60001L12.3401 5.11001L5.05006 8.50001ZM12.76 13.4999C12.88 13.6599 13.06 13.7499 13.25 13.7499C13.34 13.7499 13.42 13.7299 13.5 13.6999L21.9 9.79992C22.06 9.72992 22.18 9.57992 22.23 9.40992C22.28 9.23992 22.24 9.05992 22.14 8.90992L19.64 5.40992C19.47 5.16992 19.16 5.08992 18.9 5.20992L10.5 9.10992C10.34 9.17992 10.22 9.32992 10.17 9.49992C10.12 9.66992 10.16 9.84992 10.26 9.99992L12.76 13.4999ZM13.45 12.3999L11.66 9.88992L18.95 6.49992L20.74 9.00992L13.45 12.3999Z
" fill="#ffffff"></path><path fill-rule="evenodd" clip-rule="evenodd" d="M21.05 14.3701L19.57 15.0601L13.85 17.7101L13.25 17.9901L12.65 17.7101L6.93 15.0601L4.25 13.8101V18.2501C4.25 18.4801 4.38 18.7001 4.6 18.7901L12.92 22.6501C12.92 22.6601 12.93 22.6601 12.93 22.6601C12.95 22.6701 12.97 22.6801 13 22.6901C13.04 22.7101 13.08 22.7301 13.12 22.7301C13.16 22.7501 13.21 22.7501 13.25 22.7501C13.29 22.7501 13.34 22.7501 13.38 22.7301C13.42 22.7301 13.46 22.7101 13.5 22.6901L13.58 22.6501L21.9 18.7901C22.12 18.7001 22.25 18.4801 22.25 18.2501V13.8101L21.05 14.3701ZM5.45 15.6901L10.27 17.9301L12.65 19.0301V21.2101L5.45 17.8701V15.6901ZM21.05 17.8701L13.85 21.2101V19.0301L16.23 17.9301L21.05 15.6901V17.8701Z
" fill="black" fill-opacity="0.3"></path></svg>
